<svg width="30" height="44" fill="none" xmlns="http://www.w3.org/2000/svg"><path d="M14.667 2.068L1.379 22l13.288 19.932L27.955 22 14.667 2.068zm0-2.068l14.666 22-14.666 22L0 22 14.667 0z" fill="#FFC22D"/><path d="M10.677 16.852l-1.31 1.76-.547 5.573v-6.13l1.857-1.203zm3.443-5.368l-1.702 1.79-.577 2.713V13.36l1.31-1.114v.058l.968-.821z" fill="#FFC22D"/><path d="M6.404 24.185H8.82l-2.21.411-.94 1.804.733-2.215zm6.405-8.829v-1.613l1.858-1.438v1.804l-1.858 1.247zm.753 10.897h-.577v-1.818l.577-.059v1.877zm0-3.945l-.577.132v-1.819l.577-.205v1.892zm0-3.696l-.577.264v-1.833l.577-.323v1.892zm-1.682 7.641h-.47v-1.642l.47-.059v1.701zm0-3.549l-.47.103v-1.643l.47-.161v1.701zm0-3.329l-.47.205v-1.643l.47-.264v1.702zm-1.447 6.878h-.391v-1.496l.39-.044v1.54zm0-3.212l-.391.088v-1.496l.39-.132v1.54zm0-3.021l-.391.176V18.7l.39-.22v1.54z" fill="#FFC22D"/><path d="M14.12 11.484l.547-.528-1.516 1.29V9.974l1.516-2.2 1.515 2.2v2.274l1.31 1.114v2.64l3.032 2.039v6.13h2.405l.733 2.23h-8.995V14.109l1.857 1.247v-1.613l-1.857-1.438V11.03l-.548.455zm.068-1.144l-.46.425v.88l.46-.396v-.909zm2.16 6.703l-.586-.323v1.892l.586.264v-1.833zm0 3.578l-.586-.205v1.892l.586.132v-1.819zm0 3.814l-.586-.059v1.877h.586v-1.818zm2.553 1.818h.39v-1.496l-.39-.044v1.54zm0-3.212l.39.088v-1.496l-.39-.132v1.54zm0-3.021l.39.176V18.7l-.39-.22v1.54zm-1.448 6.233h.48v-1.642l-.48-.059v1.701zm0-3.549l.48.117V21.18l-.48-.162v1.687zm0-3.33l.48.22v-1.642l-.48-.264v1.687zm-2.385-8.11l.46.396v-.88l-.46-.425v.909z" fill="#FFC22D"/><path d="M14.12 11.484l-.969.821v-.058l1.516-1.276-.548.513zm11.351 14.843l-21.56.073 10.756 16.133L25.47 26.327z" fill="#FFC22D"/></svg>